<?xml version="1.0" encoding="UTF-8" standalone="no"?><!-- Generator: Gravit.io --><svg xmlns="http://www.w3.org/2000/svg" xmlns:xlink="http://www.w3.org/1999/xlink" style="isolation:isolate" viewBox="825.5 290 222 222" width="222pt" height="222pt"><defs><clipPath id="_clipPath_URf3AYOPcgKFivj2t5ZHeaitrnk3jb5E"><rect x="825.5" y="290" width="222" height="222"/></clipPath></defs><g clip-path="url(#_clipPath_URf3AYOPcgKFivj2t5ZHeaitrnk3jb5E)"><path d="M 835.5 290 L 1037.5 290 C 1043.019 290 1047.5 294.481 1047.5 300 L 1047.5 502 C 1047.5 507.519 1043.019 512 1037.5 512 L 835.5 512 C 829.981 512 825.5 507.519 825.5 502 L 825.5 300 C 825.5 294.481 829.981 290 835.5 290 Z" style="stroke:none;fill:#7082AC;stroke-miterlimit:10;"/><g><g><ellipse vector-effect="non-scaling-stroke" cx="936.4999999999999" cy="425.50000000000006" rx="45.5" ry="44.50000000000006" fill="rgb(255,194,132)"/><path d=" M 968.78 352.001 C 978.933 331.693 993.101 318.168 1000.397 321.816 C 1007.694 325.465 1005.374 344.914 995.22 365.221 C 985.067 385.529 970.899 399.054 963.603 395.406 C 956.306 391.757 958.626 372.308 968.78 352.001 Z " fill="rgb(255,194,132)"/><path d=" M 904.22 352.001 C 894.067 331.693 879.899 318.168 872.603 321.816 C 865.306 325.465 867.626 344.914 877.78 365.221 C 887.933 385.529 902.101 399.054 909.397 395.406 C 916.694 391.757 914.374 372.308 904.22 352.001 Z " fill="rgb(255,194,132)"/></g><path d=" M 952.649 425.445 C 950.518 422.559 951.79 418 955.487 415.271 C 959.184 412.541 963.915 412.669 966.046 415.555 C 968.177 418.441 966.905 423 963.208 425.729 C 959.511 428.459 954.78 428.331 952.649 425.445 Z " fill="rgb(102,102,102)"/><path d=" M 920.351 425.445 C 922.482 422.559 921.21 418 917.513 415.271 C 913.816 412.541 909.085 412.669 906.954 415.555 C 904.823 418.441 906.095 423 909.792 425.729 C 913.489 428.459 918.22 428.331 920.351 425.445 Z " fill="rgb(102,102,102)"/><path d=" M 935.587 436 L 936.5 436 L 937.413 436 C 940.06 436 941.134 437.861 939.811 440.152 L 939.354 440.943 L 938.897 441.734 C 937.574 444.026 935.426 444.026 934.103 441.734 L 933.646 440.943 L 933.189 440.152 C 931.866 437.861 932.94 436 935.587 436 Z " fill="rgb(174,130,130)"/><mask id="_mask_i4I2buDM6aowasor4sjlJ6Hu0u56ObJ9"><path d=" M 927.746 452 L 929.934 449.68 L 935.318 443.972 C 935.97 443.28 937.03 443.28 937.682 443.972 L 943.066 449.68 L 945.254 452" fill="white" stroke="none"/></mask><path d=" M 927.746 452 L 929.934 449.68 L 935.318 443.972 C 935.97 443.28 937.03 443.28 937.682 443.972 L 943.066 449.68 L 945.254 452" fill="none"/><path d=" M 927.746 452 L 929.934 449.68 L 935.318 443.972 C 935.97 443.28 937.03 443.28 937.682 443.972 L 943.066 449.68 L 945.254 452" fill="none" mask="url(#_mask_i4I2buDM6aowasor4sjlJ6Hu0u56ObJ9)" vector-effect="non-scaling-stroke" stroke-width="4" stroke="rgb(174,130,130)" stroke-linejoin="miter" stroke-linecap="square" stroke-miterlimit="3"/></g></g></svg>